<svg width="153" height="79" xmlns="http://www.w3.org/2000/svg" xmlns:xlink="http://www.w3.org/1999/xlink" xml:space="preserve" overflow="hidden">
    <defs>
        <clipPath id="clip0">
            <rect x="569" y="935" width="151" height="51" />
        </clipPath>
    </defs>
    <g clip-path="url(#clip0)" transform="translate(-569 -935)">
        <path d="M59.3938 41.7961C63.0461 41.7961 65.9945 38.8344 65.9945 35.1953 65.9945 31.543 63.0461 28.5945 59.3938 28.5945 55.7547 28.5945 52.8063 31.543 52.8063 35.1953 52.8063 38.8344 55.7547 41.7961 59.3938 41.7961ZM37.4 41.7961C41.0523 41.7961 44.0008 38.8344 44.0008 35.1953 44.0008 31.543 41.0523 28.5945 37.4 28.5945 33.7477 28.5945 30.7992 31.543 30.7992 35.1953 30.7992 38.8344 33.7477 41.7961 37.4 41.7961ZM48.3969 24.4109C51.1992 21.5555 55.0906 19.7891 59.3938 19.7891 67.907 19.7891 74.8 26.682 74.8 35.1953 74.8 43.6953 67.907 50.5883 59.3938 50.5883 55.0906 50.5883 51.1992 48.8219 48.3969 45.9664 45.6078 48.8219 41.7164 50.5883 37.4 50.5883 28.9 50.5883 21.9938 43.6953 21.9938 35.1953 21.9938 26.682 28.9 19.7891 37.4 19.7891 41.7164 19.7891 45.6078 21.5555 48.3969 24.4109ZM129.798 26.3898 105.599 26.3898C105.599 31.2508 101.668 35.1953 96.7938 35.1953L79.1961 35.1953C79.1961 24.2516 70.3375 15.393 59.3938 15.393 55.3297 15.393 51.5445 16.6148 48.3969 18.7266 45.2492 16.6148 41.4773 15.393 37.4 15.393 26.4695 15.393 17.5977 24.2516 17.5977 35.1953L8.80547 35.1953C3.94453 35.1953 0 31.2508 0 26.3898L0 4.39609C0 1.96563 1.96563-0.0132813 4.39609-0.0132813L101.203-0.0132813C103.634-0.0132813 105.599 1.96563 105.599 4.39609L105.599 17.5977 145.204 17.5977C147.621 17.5977 149.6 19.5633 149.6 21.9938 149.6 24.4242 147.621 26.3898 145.204 26.3898L138.603 26.3898 138.603 32.9906C138.603 35.4211 136.624 37.3867 134.194 37.3867 131.777 37.3867 129.798 35.4211 129.798 32.9906L129.798 26.3898" fill="#000000" transform="matrix(1.00936 0 0 1 569 935.17)" />
    </g>
</svg>