<svg width="140" height="76" xmlns="http://www.w3.org/2000/svg" xmlns:xlink="http://www.w3.org/1999/xlink" xml:space="preserve" overflow="hidden">
    <defs>
        <clipPath id="clip0">
            <rect x="195" y="923" width="140" height="76" />
        </clipPath>
        <clipPath id="clip1">
            <rect x="198" y="979" width="23" height="20" />
        </clipPath>
        <clipPath id="clip2">
            <rect x="223" y="979" width="23" height="20" />
        </clipPath>
    </defs>
    <g clip-path="url(#clip0)" transform="translate(-195 -923)">
        <g clip-path="url(#clip1)">
            <path d="M14.0923 63.9575C15.3734 63.9698 16.3959 65.0169 16.3836 66.298 16.3836 66.3226 16.3836 66.3473 16.3836 66.3719 16.4452 67.6407 15.4597 68.7247 14.1786 68.7863 12.8974 68.8479 11.8134 67.8624 11.7518 66.5813 11.7518 66.5197 11.7518 66.4458 11.7518 66.3719 11.7025 65.0908 12.688 64.0067 13.9691 63.9575 14.0061 63.9575 14.0554 63.9575 14.0923 63.9575ZM13.8706 56.7758C8.65988 56.8744 4.50856 61.1612 4.55783 66.3719 4.54551 71.6196 8.78306 75.8941 14.043 75.9064 19.2907 75.9187 23.5652 71.6688 23.5775 66.4212 23.5775 66.3965 23.5775 66.3842 23.5775 66.3719 23.6145 61.1119 19.4016 56.8251 14.1539 56.7758 14.0554 56.7758 13.9691 56.7758 13.8706 56.7758" fill="#000000" transform="matrix(1.00478 0 0 1 195.29 923)" />
        </g>
        <g clip-path="url(#clip2)">
            <path d="M40.8603 63.9452C42.1415 63.9698 43.1516 65.0169 43.1269 66.298 43.1269 66.3226 43.1269 66.3473 43.1269 66.3719 43.1885 67.6407 42.2031 68.7247 40.9219 68.7863 39.6531 68.8479 38.5691 67.8624 38.5075 66.5813 38.5075 66.5197 38.5075 66.4458 38.5075 66.3719 38.4459 65.0908 39.4314 64.0067 40.7002 63.9452 40.7618 63.9452 40.8111 63.9452 40.8603 63.9452ZM40.6386 56.7758C35.4279 56.8744 31.2643 61.1612 31.3135 66.3719 31.3135 71.6196 35.5757 75.8817 40.8234 75.8817 46.0711 75.8817 50.3333 71.6319 50.3333 66.3719 50.3825 61.1119 46.1696 56.8251 40.9096 56.7758 40.8234 56.7758 40.7248 56.7758 40.6386 56.7758" fill="#000000" transform="matrix(1.00478 0 0 1 195.29 923)" />
        </g>
        <path d="M2.36515 62.664C4.41001 56.2092 11.296 52.6245 17.7632 54.6693 21.5696 55.8766 24.5507 58.8576 25.7579 62.664L29.1332 62.664C31.178 56.2092 38.0764 52.6368 44.5312 54.6817 48.3253 55.8889 51.3064 58.8699 52.5136 62.664L59.3011 62.664 64.8074 52.4027 73.9847 52.4027 73.9847 64.3763 97.3405 64.3763 97.3405 73.0978 93.9899 73.0978C93.2385 73.1101 92.6102 73.7383 92.6225 74.5021 92.6225 75.2535 93.2385 75.8694 93.9899 75.8694L103.426 75.8694C104.19 75.8694 104.805 75.2412 104.805 74.4774 104.793 73.7137 104.177 73.1101 103.426 73.0978L100.1 73.0978 100.1 64.3763 107.121 64.3763 107.121 52.4027 138.755 52.4027 138.755 0.0123185 0 0.0123185 0 62.664 2.36515 62.664" fill="#000000" transform="matrix(1.00478 0 0 1 195.29 923)" />
    </g>
</svg>