<svg width="154" height="79" xmlns="http://www.w3.org/2000/svg" xmlns:xlink="http://www.w3.org/1999/xlink" xml:space="preserve" overflow="hidden">
    <defs>
        <clipPath id="clip0">
            <rect x="188" y="702" width="154" height="79" />
        </clipPath>
    </defs>
    <g clip-path="url(#clip0)" transform="translate(-188 -702)">
        <path d="M48.5192 14.2413 48.5192 54.967 112.811 55.0196C109.038 58.102 106.682 62.3506 106.713 67.9269L42.8909 67.889C42.2795 46.2556 11.5858 46.3294 10.9198 67.7639 6.30989 67.7295 5.67047 66.6825 5.62601 62.436L5.62601 46.1962C5.56813 38.9388 4.66178 43.7296 10.034 29.9671 15.5618 15.2965 14.0379 16.6526 19.0378 16.274L48.5187 14.2419ZM35.7495 38.2532 36.0039 20.9504 19.5919 21.9683C16.5999 22.1687 16.5751 22.1875 15.5207 25.6578L11.3223 36.8536C9.91183 40.2875 10.1363 41.2995 13.994 40.7975L35.7487 38.253ZM158.565 55.049 158.596 64.1986 147.998 67.9501 138.692 67.9442C138.73 62.6387 136.526 58.1767 132.616 55.0421L158.565 55.049Z" fill="#000000" fill-rule="evenodd" transform="matrix(-1 0 0 1.00007 346.651 700.079)" />
        <path d="M55.0889 1.99454 158.649 1.99454 158.649 51.4848 55.0889 51.4848Z" fill="#000000" transform="matrix(-1 0 0 1.00007 346.651 700.079)" />
        <path d="M39.5332 67.5837C39.5332 60.6078 33.8781 54.9527 26.9022 54.9527 19.9264 54.9527 14.2713 60.6078 14.2713 67.5837 14.2713 74.5595 19.9264 80.2146 26.9022 80.2146 33.8781 80.2146 39.5332 74.5595 39.5332 67.5837" fill="#000000" transform="matrix(-1 0 0 1.00007 346.651 700.079)" />
        <path d="M135.331 67.5837C135.331 60.6078 129.676 54.9527 122.7 54.9527 115.725 54.9527 110.07 60.6078 110.07 67.5837 110.07 74.5595 115.725 80.2146 122.7 80.2146 129.676 80.2146 135.331 74.5595 135.331 67.5837" fill="#000000" transform="matrix(-1 0 0 1.00007 346.651 700.079)" />
    </g>
</svg>