<svg width="153" height="79" xmlns="http://www.w3.org/2000/svg" xmlns:xlink="http://www.w3.org/1999/xlink" xml:space="preserve" overflow="hidden">
    <defs>
        <clipPath id="clip0">
            <rect x="553" y="681" width="153" height="79" />
        </clipPath>
    </defs>
    <g clip-path="url(#clip0)" transform="translate(-553 -681)">
        <path d="M117.571 129.286 117.571 116.168C117.571 115.495 118.118 114.95 118.788 114.95L105.102 114.95C105.772 114.95 106.32 115.495 106.32 116.168L106.32 129.286C106.32 129.958 105.772 130.504 105.102 130.504L118.788 130.504C118.118 130.504 117.571 129.958 117.571 129.286" fill="#000000" transform="matrix(1.00979 0 0 1 537.237 629.131)" />
        <path d="M42.2638 113.112C43.8222 115.241 44.7542 117.856 44.7542 120.696 44.7542 121.203 44.7187 121.701 44.6631 122.192L46.8799 122.192C46.8243 121.701 46.7847 121.203 46.7847 120.696 46.7847 117.856 47.7167 115.241 49.2751 113.112L42.2638 113.112" fill="#000000" transform="matrix(1.00979 0 0 1 537.237 629.131)" />
        <path d="M165.101 110.612 163.054 110.612C161.933 110.612 161.024 109.704 161.024 108.581L161.024 104.433C161.024 103.31 161.933 102.403 163.054 102.403L165.101 102.403ZM146.113 104.605C146.113 105.166 145.66 105.62 145.098 105.62 144.538 105.62 144.081 105.166 144.081 104.605L144.081 90.6994C144.081 90.1376 144.538 89.6839 145.098 89.6839 145.66 89.6839 146.113 90.1376 146.113 90.6994ZM120.177 86.549 120.177 70.9041 139.934 70.9041 145.098 86.549ZM129.702 92.8091 125.736 92.8091C124.876 92.8091 124.178 92.107 124.178 91.2443 124.178 90.3821 124.876 89.6839 125.736 89.6839L129.702 89.6839C130.563 89.6839 131.26 90.3821 131.26 91.2443 131.26 92.107 130.563 92.8091 129.702 92.8091ZM121.192 108.666C121.192 109.227 120.739 109.681 120.177 109.681 119.617 109.681 119.16 109.227 119.16 108.666L119.16 90.6994C119.16 90.1376 119.617 89.6839 120.177 89.6839 120.739 89.6839 121.192 90.1376 121.192 90.6994ZM165.101 88.5796 149.372 86.549 144.145 70.6992C143.44 68.5694 141.053 66.8428 138.811 66.8428L115.315 66.8428 115.315 65.0915C115.315 61.1737 118.209 57.9847 121.767 57.9847L127.858 51.8932 121.767 51.8932C114.85 51.8932 109.223 57.8147 109.223 65.0915L109.223 70.2509 108.767 70.2509C107.644 70.2509 106.736 71.1605 106.736 72.2823L106.736 85.1691C106.736 86.2912 107.644 87.1996 108.767 87.1996L109.223 87.1996 109.223 107.224C109.223 108.548 110.073 109.663 111.253 110.084 110.934 110.197 110.595 110.271 110.238 110.271 108.556 110.271 107.193 108.906 107.193 107.224L107.193 87.1996 106.736 87.1996C105.613 87.1996 104.706 86.2912 104.706 85.1691L104.706 72.2823C104.706 71.1605 105.613 70.2509 106.736 70.2509L107.193 70.2509 107.193 66.8428 94.7994 66.8428C92.5541 66.8428 90.7384 68.6608 90.7384 70.9041L90.7384 113.112 70.0283 113.112C71.5869 115.241 72.519 117.856 72.519 120.696 72.519 121.203 72.4831 121.701 72.4278 122.192L95.4767 122.192 95.4767 128.473C95.4767 129.596 96.3849 130.504 97.5072 130.504L105.102 130.504C104.431 130.504 103.885 129.958 103.885 129.286L103.885 116.167C103.885 115.495 104.431 114.95 105.102 114.95L97.5072 114.95C96.3849 114.95 95.4767 115.858 95.4767 116.98L95.4767 114.95C95.4767 113.828 96.3849 112.919 97.5072 112.919L126.386 112.919C127.509 112.919 128.417 113.828 128.417 114.95L128.417 116.98C128.417 115.858 127.509 114.95 126.386 114.95L118.788 114.95C119.458 114.95 120.005 115.495 120.005 116.167L120.005 129.286C120.005 129.958 119.458 130.504 118.788 130.504L126.386 130.504C127.509 130.504 128.417 129.596 128.417 128.473L128.417 122.192 133.343 122.192C133.287 121.701 133.248 121.203 133.248 120.696 133.248 113.592 139.01 107.831 146.117 107.831 153.219 107.831 158.982 113.592 158.982 120.696 158.982 121.203 158.946 121.701 158.89 122.192L161.04 122.192C163.285 122.192 165.101 120.373 165.101 118.131L165.101 113.112C166.223 113.112 167.131 112.203 167.131 111.081L167.131 90.61C167.131 89.488 166.223 88.5796 165.101 88.5796" fill="#000000" transform="matrix(1.00979 0 0 1 537.237 629.131)" />
        <path d="M17.644 113.112C16.5217 113.112 15.6135 114.02 15.6135 115.142L15.6135 120.161C15.6135 121.284 16.5217 122.192 17.644 122.192L19.1151 122.192C19.0598 121.701 19.0199 121.203 19.0199 120.696 19.0199 117.856 19.9519 115.241 21.5106 113.112L17.644 113.112" fill="#000000" transform="matrix(1.00979 0 0 1 537.237 629.131)" />
        <path d="M146.117 126.409C142.963 126.409 140.406 123.851 140.406 120.696 140.406 117.544 142.963 114.986 146.117 114.986 149.27 114.986 151.828 117.544 151.828 120.696 151.828 123.851 149.27 126.409 146.117 126.409ZM146.117 110.546C140.509 110.546 135.964 115.091 135.964 120.696 135.964 126.304 140.509 130.851 146.117 130.851 151.72 130.851 156.269 126.304 156.269 120.696 156.269 115.091 151.72 110.546 146.117 110.546" fill="#000000" transform="matrix(1.00979 0 0 1 537.237 629.131)" />
        <path d="M31.8892 126.409C28.7364 126.409 26.1782 123.851 26.1782 120.696 26.1782 117.544 28.7364 114.986 31.8892 114.986 35.0421 114.986 37.6 117.544 37.6 120.696 37.6 123.851 35.0421 126.409 31.8892 126.409ZM31.8892 110.546C26.2815 110.546 21.7367 115.091 21.7367 120.696 21.7367 126.304 26.2815 130.851 31.8892 130.851 37.4929 130.851 42.0417 126.304 42.0417 120.696 42.0417 115.091 37.4929 110.546 31.8892 110.546" fill="#000000" transform="matrix(1.00979 0 0 1 537.237 629.131)" />
        <path d="M59.654 126.409C56.5008 126.409 53.9432 123.851 53.9432 120.696 53.9432 117.544 56.5008 114.986 59.654 114.986 62.8066 114.986 65.3648 117.544 65.3648 120.696 65.3648 123.851 62.8066 126.409 59.654 126.409ZM59.654 110.546C54.046 110.546 49.5015 115.091 49.5015 120.696 49.5015 126.304 54.046 130.851 59.654 130.851 65.2574 130.851 69.8065 126.304 69.8065 120.696 69.8065 115.091 65.2574 110.546 59.654 110.546" fill="#000000" transform="matrix(1.00979 0 0 1 537.237 629.131)" />
    </g>
</svg>